<svg xmlns="http://www.w3.org/2000/svg">
  <!--Carrito-->
  <symbol
  id="cart"
  viewBox="0 0 576 512">
  <path fill="currentColor" d="M528.12 301.319l47.273-208C578.806 78.301 567.391 64 551.99 64H159.208l-9.166-44.81C147.758 8.021 137.93 0 126.529 0H24C10.745 0 0 10.745 0 24v16c0 13.255 10.745 24 24 24h69.883l70.248 343.435C147.325 417.1 136 435.222 136 456c0 30.928 25.072 56 56 56s56-25.072 56-56c0-15.674-6.447-29.835-16.824-40h209.647C430.447 426.165 424 440.326 424 456c0 30.928 25.072 56 56 56s56-25.072 56-56c0-22.172-12.888-41.332-31.579-50.405l5.517-24.276c3.413-15.018-8.002-29.319-23.403-29.319H218.117l-6.545-32h293.145c11.206 0 20.92-7.754 23.403-18.681z"/>
  </symbol>

    <symbol
  id="openeye"
  viewBox="0 0 469.333 469.333">
			<path fill="currentColor" d="M234.667,170.667c-35.307,0-64,28.693-64,64s28.693,64,64,64s64-28.693,64-64S269.973,170.667,234.667,170.667z"/>
			<path fill="currentColor" d="M234.667,74.667C128,74.667,36.907,141.013,0,234.667c36.907,93.653,128,160,234.667,160
				c106.773,0,197.76-66.347,234.667-160C432.427,141.013,341.44,74.667,234.667,74.667z M234.667,341.333
				c-58.88,0-106.667-47.787-106.667-106.667S175.787,128,234.667,128s106.667,47.787,106.667,106.667
				S293.547,341.333,234.667,341.333z"/>
    </symbol>

        <symbol
  id="closeye"
  viewBox="0 0 512.008 512.008">
		<path fill="currentColor" d="M256.011,106.673c-131.435,0-248.555,136.619-253.483,142.443c-3.371,3.968-3.371,9.792,0,13.781
			c2.944,3.477,45.995,53.461,108.075,93.269l66.859-66.859c-4.352-10.24-6.784-21.483-6.784-33.301
			c0-47.061,38.272-85.333,85.333-85.333c11.819,0,23.061,2.432,33.301,6.784l54.976-54.976
			C317.493,112.902,288.075,106.673,256.011,106.673z"/>

		<path fill="currentColor" d="M510.112,249.926c-2.731-3.947-48.021-67.691-124.16-108.779l58.944-58.944c4.16-4.16,4.16-10.923,0-15.083
			c-4.16-4.16-10.923-4.16-15.083,0L67.147,429.788c-4.16,4.16-4.16,10.923,0,15.083c2.069,2.091,4.8,3.136,7.531,3.136
			c2.731,0,5.461-1.045,7.552-3.115l66.88-66.88c32.96,16.085,69.312,27.328,106.901,27.328
			c131.435,0,248.555-136.619,253.483-142.443C512.587,259.206,512.864,253.894,510.112,249.926z M256.011,341.34
			c-19.691,0-37.589-6.976-52.053-18.197l119.189-119.189c11.221,14.464,18.197,32.363,18.197,52.053
			C341.344,303.068,303.072,341.34,256.011,341.34z"/>
    </symbol>


</svg>
